# Exported from ProBuilder
# http://www.procore3d.com/probuilder
# 10/18/2017 10:36:18 AM

mtllib ./Room.mtl
o Room

g Room
v 5 0 0
v -1 0 0
v 5 4 0
v -1 4 0
v -1 0 0
v -1 0 -8
v -1 4 0
v -1 4 -8
v -1 0 -8
v 5 0 -8
v -1 4 -8
v 5 4 -8
v 8 0 -8
v 8 0 0
v 8 4 -8
v 8 4 0
v 5 4 0
v -1 4 0
v 5 4 -8
v -1 4 -8
v 5 0 -8
v -1 0 -8
v 5 0 0
v -1 0 0
v 5 0 -8
v 5 0 0
v 8 0 -8
v 8 0 0
v 5 4 -8
v 5 0 -8
v 8 4 -8
v 8 0 -8
v 5 0 2
v 5 4 2
v 8 0 2
v 8 4 2
v 5 4 0
v 5 4 -8
v 8 4 0
v 8 4 -8
v 5 0 0
v 5 4 0
v 5 0 2
v 5 4 2
v 8 0 0
v 5 0 0
v 8 0 2
v 5 0 2
v 5 4 0
v 8 4 0
v 5 4 2
v 8 4 2
v 8 4 0
v 8 0 0
v 8 4 2
v 8 0 2

vn 0 0 -1
vn 0 0 -1
vn 0 0 -1
vn 0 0 -1
vn 1 0 0
vn 1 0 0
vn 1 0 0
vn 1 0 0
vn 0 0 1
vn 0 0 1
vn 0 0 1
vn 0 0 1
vn -1 0 0
vn -1 0 0
vn -1 0 0
vn -1 0 0
vn 0 -1 0
vn 0 -1 0
vn 0 -1 0
vn 0 -1 0
vn 0 1 0
vn 0 1 0
vn 0 1 0
vn 0 1 0
vn 0 1 0
vn 0 1 0
vn 0 1 0
vn 0 1 0
vn 0 0 1
vn 0 0 1
vn 0 0 1
vn 0 0 1
vn 0 0 -1
vn 0 0 -1
vn 0 0 -1
vn 0 0 -1
vn 0 -1 0
vn 0 -1 0
vn 0 -1 0
vn 0 -1 0
vn 1 0 0
vn 1 0 0
vn 1 0 0
vn 1 0 0
vn 0 1 0
vn 0 1 0
vn 0 1 0
vn 0 1 0
vn 0 -1 0
vn 0 -1 0
vn 0 -1 0
vn 0 -1 0
vn -1 0 0
vn -1 0 0
vn -1 0 0
vn -1 0 0

vt -5 0
vt 1 0
vt -5 4
vt 1 4
vt 0 0
vt 8 0
vt 0 4
vt 8 4
vt -1 0
vt 5 0
vt -1 4
vt 5 4
vt -8 0
vt 0 0
vt -8 4
vt 0 4
vt 5 0
vt -1 0
vt 5 -8
vt -1 -8
vt -5 -8
vt 1 -8
vt -5 0
vt 1 0
vt -5 -8
vt -5 0
vt -8 -8
vt -8 0
vt 5 4
vt 5 0
vt 8 4
vt 8 0
vt -5 0
vt -5 4
vt -8 0
vt -8 4
vt 5 0
vt 5 -8
vt 8 0
vt 8 -8
vt 0 0
vt 0 4
vt -2 0
vt -2 4
vt -8 0
vt -5 0
vt -8 2
vt -5 2
vt 5 0
vt 8 0
vt 5 2
vt 8 2
vt 0 4
vt 0 0
vt 2 4
vt 2 0

g Room_0
usemtl walls
f 1/1/1 2/2/2 4/4/4 3/3/3
f 5/5/5 6/6/6 8/8/8 7/7/7
f 9/9/9 10/10/10 12/12/12 11/11/11
f 13/13/13 14/14/14 16/16/16 15/15/15
f 29/29/29 30/30/30 32/32/32 31/31/31
f 33/33/33 34/34/34 36/36/36 35/35/35
f 41/41/41 42/42/42 44/44/44 43/43/43
f 53/53/53 54/54/54 56/56/56 55/55/55

g Room_1
usemtl cieling
f 17/17/17 18/18/18 20/20/20 19/19/19
f 37/37/37 38/38/38 40/40/40 39/39/39
f 49/49/49 50/50/50 52/52/52 51/51/51

g Room_2
usemtl Wood_Floor
f 21/21/21 22/22/22 24/24/24 23/23/23
f 25/25/25 26/26/26 28/28/28 27/27/27
f 45/45/45 46/46/46 48/48/48 47/47/47

